PathFileType        4      (X/Y/Z)      C:\Users\pc\Desktop\IMUTRC\Sujet_05\Sujet_05_Tpose.trc         
DataRate	CameraRate	NumFrames	NumMarkers	Units	OrigDataRate	OrigDataStartFrame	OrigNumFrames
60.0	60.0	4	64	mm	60.0	44	116
Frame#	Time	pHipOrigin			pRightASI			pLeftASI			pRightCSI			pLeftCSI			pRightIschialTub			pLeftIschialTub			pSacrum			pL5SpinalProcess			pL3SpinalProcess			pT12SpinalProcess			pIJ			pT4SpinalProcess			pT8SpinalProcess			pPX			pC7SpinalProcess			pTopOfHead			pRightAuricularis			pLeftAuricularis			pBackOfHead			pRightAcromion			pLeftAcromion			pRightArmLatEpicondyle			pRightArmMedEpicondyle			pLeftArmLatEpicondyle			pLeftArmMedEpicondyle			pRightUlnarStyloid			pRightRadialStyloid			pRightOlecranon			pLeftUlnarStyloid			pLeftRadialStyloid			pLeftOlecranon			pRightTopOfHand			pRightPinky			pRightBallHand			pLeftTopOfHand			pLeftPinky			pLeftBallHand			pRightGreaterTrochanter			pRightKneeLatEpicondyle			pRightKneeMedEpicondyle			pRightPatella			pLeftGreaterTrochanter			pLeftKneeLatEpicondyle			pLeftKneeMedEpicondyle			pLeftPatella			pRightTibialTub			pRightLatMalleolus			pRightMedMalleolus			pLeftTibialTub			pLeftLatMalleolus			pLeftMedMalleolus			pRightHeelFoot			pRightFirstMetatarsal			pRightFifthMetatarsal			pRightPivotFoot			pRightHeelCenter			pRightToe			pLeftHeelFoot			pLeftFirstMetatarsal			pLeftFifthMetatarsal			pLeftPivotFoot			pLeftHeelCenter			pLeftToe			
		X1	Y1	Z1	X2	Y2	Z2	X3	Y3	Z3	X4	Y4	Z4	X5	Y5	Z5	X6	Y6	Z6	X7	Y7	Z7	X8	Y8	Z8	X9	Y9	Z9	X10	Y10	Z10	X11	Y11	Z11	X12	Y12	Z12	X13	Y13	Z13	X14	Y14	Z14	X15	Y15	Z15	X16	Y16	Z16	X17	Y17	Z17	X18	Y18	Z18	X19	Y19	Z19	X20	Y20	Z20	X21	Y21	Z21	X22	Y22	Z22	X23	Y23	Z23	X24	Y24	Z24	X25	Y25	Z25	X26	Y26	Z26	X27	Y27	Z27	X28	Y28	Z28	X29	Y29	Z29	X30	Y30	Z30	X31	Y31	Z31	X32	Y32	Z32	X33	Y33	Z33	X34	Y34	Z34	X35	Y35	Z35	X36	Y36	Z36	X37	Y37	Z37	X38	Y38	Z38	X39	Y39	Z39	X40	Y40	Z40	X41	Y41	Z41	X42	Y42	Z42	X43	Y43	Z43	X44	Y44	Z44	X45	Y45	Z45	X46	Y46	Z46	X47	Y47	Z47	X48	Y48	Z48	X49	Y49	Z49	X50	Y50	Z50	X51	Y51	Z51	X52	Y52	Z52	X53	Y53	Z53	X54	Y54	Z54	X55	Y55	Z55	X56	Y56	Z56	X57	Y57	Z57	X58	Y58	Z58	X59	Y59	Z59	X60	Y60	Z60	X61	Y61	Z61	X62	Y62	Z62	X63	Y63	Z63	X64	Y64	Z64	
44	0.717	268.47158	879.0728	284.70604000000003	341.20196	971.47007	404.00613000000004	320.42185	971.47007	155.01590000000004	298.06468	1033.90316	386.56568000000004	280.80977	1033.90316	179.41397000000006	220.97419	826.10208	340.83089000000007	212.34673	826.10208	237.20865000000006	206.40956	898.83246	289.90107000000006	237.9508	986.68408	287.58186000000006	246.85656	1100.88191	288.04570000000007	243.05305	1205.33906	289.99383000000006	392.41008	1427.612	278.7688700000001	240.27	1401.82241	294.1684100000001	237.11588	1309.79621	292.59135000000003	393.245	1301.81813	276.07858000000004	244.25904	1458.87494	300.5694300000001	321.72061	1727.62482	283.4072800000001	356.78704	1617.69434	340.7381200000001	270.32695	1626.13625	222.92232000000013	267.35836	1624.93027	315.9689700000001	285.44819	1425.5711	490.8372900000001	229.50888	1433.45641	96.10800000000009	321.81338	1335.3075	720.0678700000001	376.63947	1325.75237	706.4309200000001	155.75805	1353.7684	-126.53601999999991	209.84199	1338.09055	-137.3899099999999	449.36985	1258.30978	919.8908700000001	435.91844	1302.74582	938.1662400000001	351.68478	1309.98175	699.0094500000001	201.029	1282.42955	-363.28081999999995	180.24889	1326.58728	-373.7636499999999	191.38109	1325.56683	-120.22776999999992	486.75549	1242.26086	1099.02654	487.68317	1226.67578	1014.1435100000001	468.94397	1262.76266	954.0296200000001	186.18606	1292.07746	-547.7970599999999	209.74922	1264.43249	-469.50057999999996	208.82154	1291.14977	-401.96521999999993	272.18231	847.16049	433.59923000000003	253.99972	486.56995	409.01562000000007	257.89599	485.73504	338.69721000000004	295.46717	486.75549	373.57811000000004	253.35034	848.18094	135.72008000000005	229.04503	487.77594	157.05680000000004	237.48695	485.8278	227.00413000000003	272.73892	486.56995	189.61849000000004	306.97044	451.87459	375.0624	225.61261	85.25410999999997	407.53132	229.04503	84.04811999999998	347.97405	284.42773	452.80227	187.02098000000004	204.46142	85.81071999999999	155.38697	211.69735	83.95534999999998	214.57317	189.24742	-0.09277000000002288	373.48534	354.09676	2.5047499999999787	350.84987	346.67529	1.9481399999999738	428.96081	372.65043	2.504749999999976	390.92579	228.02458	3.1541199999999767	377.19608	452.98781	3.3396599999999754	398.62556	169.6733	0.1855399999999885	187.94866	333.87326	2.5047499999999867	215.12978	328.58546	2.1336699999999915	136.8333	353.54015	2.5047499999999894	175.5177	208.636	3.4324299999999885	185.35115	434.06307	3.24688999999999	170.04437	
45	0.733	268.65712	878.98003	284.61327000000006	341.29473	971.3773	404.00613000000004	320.51462	971.47007	154.92313000000004	298.15745	1033.8104	386.47291000000007	280.90254	1033.90316	179.32120000000006	221.06696	826.10208	340.73812000000004	212.4395	826.10208	237.11588000000006	206.50233	898.83246	289.80830000000003	238.04356	986.68408	287.48909000000003	246.94932	1100.88191	287.95293000000004	243.14582	1205.33906	289.99383000000006	392.41008	1427.612	278.7688700000001	240.36277	1401.82241	294.1684100000001	237.11588	1309.79621	292.59135000000003	393.33777	1301.81813	276.07858000000004	244.35181	1458.87494	300.6621900000001	321.99891	1727.53205	283.3145100000001	356.97258	1617.60157	340.6453500000001	270.41971	1626.13625	222.92232000000013	267.45113	1624.93027	315.9689700000001	285.44819	1425.47833	490.93006000000014	229.60164	1433.54918	96.10800000000009	321.81338	1335.12197	720.0678700000001	376.63947	1325.56683	706.4309200000001	155.85081	1353.67564	-126.53601999999991	209.93476	1337.99779	-137.3899099999999	449.46261	1258.03148	919.8908700000001	436.0112	1302.46751	938.1662400000001	351.68478	1309.79621	699.0094500000001	201.21453	1282.33678	-363.28081999999995	180.43442	1326.49451	-373.7636499999999	191.47386	1325.47406	-120.22776999999992	486.94102	1241.98255	1098.93377	487.77594	1226.49024	1014.0507400000001	469.1295	1262.57713	954.0296200000001	186.46437	1291.98469	-547.7042899999999	210.02752	1264.33972	-469.4078099999999	209.09984	1291.05701	-401.96521999999993	272.36785	847.16049	433.59923000000003	254.09249	486.56995	409.01562000000007	257.89599	485.73504	338.60445000000004	295.55994	486.75549	373.57811000000004	253.53588	848.18094	135.62731000000005	229.1378	487.77594	156.96403000000004	237.57972	485.8278	226.91136000000003	272.83169	486.56995	189.52572000000004	306.97044	451.87459	374.96964	225.70537	85.25410999999997	407.53132	229.04503	84.04811999999998	347.97405	284.5205	452.80227	187.02098000000004	204.46142	85.81071999999999	155.38697	211.69735	83.95534999999998	214.57317	189.24742	-0.09277000000002288	373.48534	354.09676	2.5047499999999787	350.84987	346.67529	1.9481399999999738	428.96081	372.65043	2.411979999999976	390.92579	228.02458	3.1541199999999767	377.19608	452.98781	3.3396599999999754	398.62556	169.6733	0.1855399999999885	187.94866	333.87326	2.4119799999999865	215.03702	328.58546	2.1336699999999915	136.8333	353.54015	2.5047499999999894	175.5177	208.636	3.4324299999999885	185.35115	434.06307	3.1541199999999896	170.04437	
46	0.75	268.74988	878.98003	284.5205000000001	341.3875	971.3773	403.91336000000007	320.60739	971.47007	154.92313000000004	298.34299	1033.8104	386.47291000000007	280.99531	1033.90316	179.32120000000006	221.15973	826.00931	340.64535000000006	212.53227	826.10208	237.11588000000006	206.5951	898.83246	289.80830000000003	238.2291	986.59131	287.48909000000003	247.04209	1100.88191	287.95293000000004	243.23859	1205.33906	289.90107000000006	392.50285	1427.612	278.8616300000001	240.36277	1401.82241	294.1684100000001	237.20865	1309.70344	292.59135000000003	393.33777	1301.81813	276.07858000000004	244.35181	1458.78217	300.6621900000001	322.18445	1727.53205	283.3145100000001	357.15811	1617.5088	340.6453500000001	270.41971	1626.13625	222.92232000000013	267.63666	1624.93027	315.9689700000001	285.35542	1425.38556	490.93006000000014	229.60164	1433.54918	96.10800000000009	321.81338	1334.93643	720.0678700000001	376.73223	1325.38129	706.4309200000001	155.94358	1353.58287	-126.53601999999991	210.12029	1337.99779	-137.2971499999999	449.55538	1257.75317	919.7981000000001	436.10397	1302.18921	938.0734700000002	351.77755	1309.61067	698.9166800000002	201.49284	1282.24401	-363.28081999999995	180.71273	1326.40174	-373.7636499999999	191.65939	1325.47406	-120.22776999999992	487.12656	1241.61148	1098.841	487.96148	1226.11917	1013.9579700000002	469.22227	1262.29882	953.9368500000002	186.74267	1291.79915	-547.7042899999999	210.21306	1264.24696	-469.4078099999999	209.28538	1290.96424	-401.96521999999993	272.46062	847.16049	433.50646000000006	254.18526	486.56995	408.92285000000004	257.98876	485.64227	338.60445000000004	295.55994	486.75549	373.57811000000004	253.62865	848.18094	135.62731000000005	229.23057	487.77594	156.96403000000004	237.67249	485.8278	226.91136000000003	272.92446	486.56995	189.52572000000004	307.06321	451.78182	374.96964	225.70537	85.25410999999997	407.53132	229.04503	84.04811999999998	347.97405	284.5205	452.70951	187.02098000000004	204.46142	85.81071999999999	155.38697	211.69735	83.95534999999998	214.57317	189.24742	-0.09277000000002288	373.48534	354.09676	2.5047499999999787	350.84987	346.67529	1.9481399999999738	428.96081	372.65043	2.411979999999976	391.01856	228.02458	3.1541199999999767	377.19608	452.98781	3.2468899999999756	398.62556	169.6733	0.1855399999999885	187.94866	333.87326	2.4119799999999865	215.03702	328.58546	2.1336699999999915	136.8333	353.54015	2.5047499999999894	175.5177	208.636	3.4324299999999885	185.25838	434.06307	3.1541199999999896	170.04437	
47	0.767	268.84265	878.98003	284.5205000000001	341.57303	971.3773	403.91336000000007	320.70016	971.47007	154.83036000000007	298.43575	1033.8104	386.38014000000004	281.08807	1033.90316	179.22844000000006	221.34526	826.00931	340.64535000000006	212.62504	826.10208	237.02311000000006	206.68786	898.83246	289.71553000000006	238.32187	986.59131	287.39632000000006	247.13486	1100.88191	287.95293000000004	243.33136	1205.24629	289.90107000000006	392.50285	1427.70477	278.8616300000001	240.45554	1401.72964	294.1684100000001	237.30142	1309.70344	292.59135000000003	393.43054	1301.81813	276.07858000000004	244.44458	1458.78217	300.6621900000001	322.36999	1727.43928	283.3145100000001	357.25088	1617.5088	340.6453500000001	270.51248	1626.13625	223.0150900000001	267.8222	1624.93027	316.0617400000001	285.35542	1425.2928	490.93006000000014	229.69441	1433.54918	96.20077000000009	321.90614	1334.75089	720.0678700000001	376.825	1325.28852	706.3381500000002	156.12912	1353.58287	-126.53601999999991	210.21306	1337.99779	-137.2971499999999	449.74092	1257.47487	919.7053400000001	436.28951	1301.9109	938.0734700000002	351.87032	1309.51791	698.9166800000002	201.67837	1282.15125	-363.28081999999995	180.89827	1326.30898	-373.7636499999999	191.75216	1325.38129	-120.22776999999992	487.21933	1241.14764	1098.74823	488.14701	1225.84086	1013.8652000000001	469.40781	1262.02052	953.8440900000002	187.02098	1291.70638	-547.7042899999999	210.58413	1264.15419	-469.4078099999999	209.56368	1290.87147	-401.96521999999993	272.55339	847.16049	433.50646000000006	254.18526	486.56995	408.92285000000004	257.98876	485.64227	338.60445000000004	295.6527	486.66272	373.57811000000004	253.72141	848.18094	135.53455000000005	229.32334	487.77594	156.96403000000004	237.76526	485.8278	226.81859000000003	272.92446	486.56995	189.52572000000004	307.06321	451.78182	374.96964	225.70537	85.25410999999997	407.53132	229.04503	84.04811999999998	347.97405	284.61327	452.70951	186.92821000000004	204.46142	85.81071999999999	155.38697	211.69735	83.95534999999998	214.57317	189.24742	-0.18554000000002288	373.48534	354.09676	2.5047499999999787	350.84987	346.67529	1.9481399999999738	428.96081	372.65043	2.411979999999976	391.01856	228.02458	3.1541199999999767	377.19608	452.98781	3.2468899999999756	398.62556	169.6733	0.1855399999999885	187.94866	333.87326	2.4119799999999865	215.03702	328.58546	2.1336699999999915	136.8333	353.54015	2.5047499999999894	175.5177	208.636	3.4324299999999885	185.25838	434.06307	3.1541199999999896	170.04437	
